name rise30.9205peak61.366fall85.3838.mot
datacolumns 19
datarows 35
range 5.42831300000000 5.48497900000000
endheader
time	ground_force1_vx	ground_force1_vy	ground_force1_vz	ground_force1_px	ground_force1_py	ground_force1_pz	ground_force2_vx	ground_force2_vy	ground_force2_vz	ground_force2_px	ground_force2_py	ground_force2_pz	ground_torque1_x	ground_torque1_y	ground_torque1_z	ground_torque2_x	ground_torque2_y	ground_torque2_z	
5.42831300000000	-8.99584400000000	42.67094100000000	-8.36499600000000	0.33139600000000	0.00000000000000	0.07604000000000	-60.71134100000000	773.85070099999996	-47.31118800000000	0.13751400000000	0.00000000000000	-0.08323300000000	0.00000000000000	-5.76242700000000	0.00000000000000	0.00000000000000	-20.72783000000000	0.00000000000000	
5.42997800000000	-9.77739200000000	50.04790800000000	-9.34389400000000	0.33616900000000	0.00000000000000	0.07718200000000	-61.49649400000000	770.76440400000001	-47.02508300000000	0.13640200000000	0.00000000000000	-0.08316600000000	0.00000000000000	-6.50309100000000	0.00000000000000	0.00000000000000	-20.70278800000000	0.00000000000000	
5.43165200000000	-10.36682400000000	57.52869200000000	-10.21156000000000	0.34065100000000	0.00000000000000	0.07819800000000	-62.28780000000000	767.56433100000004	-46.71959100000000	0.13529300000000	0.00000000000000	-0.08309600000000	0.00000000000000	-7.18222100000000	0.00000000000000	0.00000000000000	-20.67709800000000	0.00000000000000	
5.43331400000000	-10.74028700000000	65.01848300000000	-10.94605200000000	0.34488200000000	0.00000000000000	0.07910600000000	-63.08419800000000	764.24830699999995	-46.39420900000000	0.13418600000000	0.00000000000000	-0.08302300000000	0.00000000000000	-7.78370600000000	0.00000000000000	0.00000000000000	-20.65055100000000	0.00000000000000	
5.43497900000000	-10.88467600000000	72.44564500000000	-11.53340600000000	0.34889400000000	0.00000000000000	0.07992400000000	-63.88455400000000	760.81412000000000	-46.04846100000000	0.13308200000000	0.00000000000000	-0.08294600000000	0.00000000000000	-8.29660200000000	0.00000000000000	0.00000000000000	-20.62292900000000	0.00000000000000	
5.43665200000000	-10.79735100000000	79.76395300000000	-11.96764900000000	0.35271300000000	0.00000000000000	0.08066300000000	-64.68765399999999	757.25952900000004	-45.68190200000000	0.13198400000000	0.00000000000000	-0.08286600000000	0.00000000000000	-8.71528700000000	0.00000000000000	0.00000000000000	-20.59400800000000	0.00000000000000	
5.43831600000000	-10.48505800000000	86.95236700000000	-12.25016700000000	0.35636000000000	0.00000000000000	0.08133500000000	-65.49221300000001	753.58227499999998	-45.29411900000000	0.13089100000000	0.00000000000000	-0.08278200000000	0.00000000000000	-9.03915600000000	0.00000000000000	0.00000000000000	-20.56355500000000	0.00000000000000	
5.43998200000000	-9.96225600000000	94.01276799999999	-12.38856900000000	0.35985200000000	0.00000000000000	0.08194900000000	-66.29687199999999	749.78008399999999	-44.88474000000000	0.12980600000000	0.00000000000000	-0.08269400000000	0.00000000000000	-9.27195400000000	0.00000000000000	0.00000000000000	-20.53133000000000	0.00000000000000	
5.44165100000000	-9.24910300000000	100.96619099999999	-12.39524000000000	0.36320400000000	0.00000000000000	0.08251200000000	-67.10020000000000	745.85067900000001	-44.45343100000000	0.12872900000000	0.00000000000000	-0.08260300000000	0.00000000000000	-9.42086500000000	0.00000000000000	0.00000000000000	-20.49708900000000	0.00000000000000	
5.44331200000000	-8.36931800000000	107.84813300000000	-12.28574900000000	0.36642700000000	0.00000000000000	0.08302900000000	-67.90070100000000	741.79178800000000	-43.99990100000000	0.12766200000000	0.00000000000000	-0.08250700000000	0.00000000000000	-9.49546700000000	0.00000000000000	0.00000000000000	-20.46058000000000	0.00000000000000	
5.44497700000000	-7.34811600000000	114.70349100000000	-12.07727400000000	0.36953100000000	0.00000000000000	0.08350700000000	-68.69681100000000	737.60115199999996	-43.52390800000000	0.12660600000000	0.00000000000000	-0.08240800000000	0.00000000000000	-9.50667400000000	0.00000000000000	0.00000000000000	-20.42154800000000	0.00000000000000	
5.44665200000000	-6.21037700000000	121.58158899999999	-11.78716600000000	0.37252500000000	0.00000000000000	0.08394900000000	-69.48690400000000	733.27653999999995	-43.02525900000000	0.12556300000000	0.00000000000000	-0.08230400000000	0.00000000000000	-9.46574100000000	0.00000000000000	0.00000000000000	-20.37973200000000	0.00000000000000	
5.44831500000000	-4.97915400000000	128.53170000000000	-11.43174300000000	0.37541500000000	0.00000000000000	0.08435900000000	-70.26929400000000	728.81575099999998	-42.50381300000000	0.12453200000000	0.00000000000000	-0.08219500000000	0.00000000000000	-9.38340500000000	0.00000000000000	0.00000000000000	-20.33487000000000	0.00000000000000	
5.44998200000000	-3.67456900000000	135.59930399999999	-11.02536700000000	0.37820800000000	0.00000000000000	0.08474100000000	-71.04223900000000	724.21663400000000	-41.95948300000000	0.12351700000000	0.00000000000000	-0.08208300000000	0.00000000000000	-9.26921900000000	0.00000000000000	0.00000000000000	-20.28669600000000	0.00000000000000	
5.45165000000000	-2.31313000000000	142.82325700000001	-10.57983600000000	0.38090900000000	0.00000000000000	0.08509700000000	-71.80394600000000	719.47709199999997	-41.39224400000000	0.12251700000000	0.00000000000000	-0.08196600000000	0.00000000000000	-9.13107700000000	0.00000000000000	0.00000000000000	-20.23494100000000	0.00000000000000	
5.45331000000000	-0.90742800000000	150.23392600000000	-10.10406500000000	0.38352100000000	0.00000000000000	0.08543100000000	-72.55257200000000	714.59509900000000	-40.80212500000000	0.12153400000000	0.00000000000000	-0.08184400000000	0.00000000000000	-8.97495100000000	0.00000000000000	0.00000000000000	-20.17933600000000	0.00000000000000	
5.45498000000000	0.53381000000000	157.85225199999999	-9.60404500000000	0.38604900000000	0.00000000000000	0.08574300000000	-73.28623000000000	709.56870900000001	-40.18922200000000	0.12057000000000	0.00000000000000	-0.08171700000000	0.00000000000000	-8.80481800000000	0.00000000000000	0.00000000000000	-20.11961100000000	0.00000000000000	
5.45664500000000	2.00539500000000	165.68964199999999	-9.08302400000000	0.38849500000000	0.00000000000000	0.08603600000000	-74.00299300000000	704.39607300000000	-39.55369000000000	0.11962400000000	0.00000000000000	-0.08158600000000	0.00000000000000	-8.62274900000000	0.00000000000000	0.00000000000000	-20.05549700000000	0.00000000000000	
5.45831300000000	3.50515000000000	173.74855500000001	-8.54185800000000	0.39086200000000	0.00000000000000	0.08631200000000	-74.70089900000001	699.07544800000005	-38.89575200000000	0.11869900000000	0.00000000000000	-0.08145000000000	0.00000000000000	-8.42912000000000	0.00000000000000	0.00000000000000	-19.98672400000000	0.00000000000000	
5.45998100000000	5.03325600000000	182.02360300000001	-7.97947500000000	0.39315300000000	0.00000000000000	0.08657100000000	-75.37795699999999	693.60521700000004	-38.21569400000000	0.11779600000000	0.00000000000000	-0.08131000000000	0.00000000000000	-8.22291900000000	0.00000000000000	0.00000000000000	-19.91302500000000	0.00000000000000	
5.46167000000000	6.59153500000000	190.50299000000001	-7.39339700000000	0.39536900000000	0.00000000000000	0.08681600000000	-76.03214900000000	687.98390099999995	-37.51387000000000	0.11691500000000	0.00000000000000	-0.08116400000000	0.00000000000000	-8.00209900000000	0.00000000000000	0.00000000000000	-19.83413500000000	0.00000000000000	
5.46331600000000	8.18275900000000	199.17012399999999	-6.78026800000000	0.39751100000000	0.00000000000000	0.08704800000000	-76.66143700000001	682.21017199999994	-36.79070100000000	0.11605700000000	0.00000000000000	-0.08101300000000	0.00000000000000	-7.76394200000000	0.00000000000000	0.00000000000000	-19.74979000000000	0.00000000000000	
5.46498100000000	9.81000600000000	208.00524799999999	-6.13635300000000	0.39958100000000	0.00000000000000	0.08726700000000	-77.26376600000000	676.28287499999999	-36.04667300000000	0.11522400000000	0.00000000000000	-0.08085800000000	0.00000000000000	-7.50541300000000	0.00000000000000	0.00000000000000	-19.65973200000000	0.00000000000000	
5.46664800000000	11.47611400000000	216.98696500000000	-5.45797000000000	0.40158000000000	0.00000000000000	0.08747400000000	-77.83707500000000	670.20103900000004	-35.28233900000000	0.11441600000000	0.00000000000000	-0.08069700000000	0.00000000000000	-7.22347500000000	0.00000000000000	0.00000000000000	-19.56370600000000	0.00000000000000	
5.46831700000000	13.18325800000000	226.09356800000000	-4.74184000000000	0.40350900000000	0.00000000000000	0.08767100000000	-78.37929600000000	663.96389199999999	-34.49831800000000	0.11363500000000	0.00000000000000	-0.08053100000000	0.00000000000000	-6.91534600000000	0.00000000000000	0.00000000000000	-19.46146300000000	0.00000000000000	
5.46998000000000	14.93264900000000	235.30412000000001	-3.98534400000000	0.40536800000000	0.00000000000000	0.08785800000000	-78.88836300000000	657.57088299999998	-33.69529400000000	0.11288000000000	0.00000000000000	-0.08036000000000	0.00000000000000	-6.57869100000000	0.00000000000000	0.00000000000000	-19.35275800000000	0.00000000000000	
5.47164600000000	16.72435900000000	244.59925000000001	-3.18669000000000	0.40715800000000	0.00000000000000	0.08803500000000	-79.36221600000000	651.02168600000005	-32.87401400000000	0.11215400000000	0.00000000000000	-0.08018400000000	0.00000000000000	-6.21175900000000	0.00000000000000	0.00000000000000	-19.23735300000000	0.00000000000000	
5.47331600000000	18.55726600000000	253.96165800000000	-2.34498300000000	0.40887900000000	0.00000000000000	0.08820400000000	-79.79880900000001	644.31622500000003	-32.03528800000000	0.11145600000000	0.00000000000000	-0.08000300000000	0.00000000000000	-5.81344100000000	0.00000000000000	0.00000000000000	-19.11501900000000	0.00000000000000	
5.47498600000000	20.42908600000000	263.37636700000002	-1.46022600000000	0.41053200000000	0.00000000000000	0.08836500000000	-80.19611600000000	637.45467399999995	-31.17998500000000	0.11078800000000	0.00000000000000	-0.07981700000000	0.00000000000000	-5.38328500000000	0.00000000000000	0.00000000000000	-18.98553200000000	0.00000000000000	
5.47665100000000	22.33648900000000	272.83074199999999	-0.53325900000000	0.41211600000000	0.00000000000000	0.08851800000000	-80.55213300000000	630.43747499999995	-30.30903500000000	0.11015000000000	0.00000000000000	-0.07962500000000	0.00000000000000	-4.92146100000000	0.00000000000000	0.00000000000000	-18.84867800000000	0.00000000000000	
5.47831200000000	24.27526600000000	282.31432300000000	0.43435100000000	0.41363200000000	0.00000000000000	0.08866500000000	-80.86489200000000	623.26534400000003	-29.42342400000000	0.10954200000000	0.00000000000000	-0.07942900000000	0.00000000000000	-4.42868800000000	0.00000000000000	0.00000000000000	-18.70425500000000	0.00000000000000	
5.47998000000000	26.24052200000000	291.81853699999999	1.44044300000000	0.41508000000000	0.00000000000000	0.08880400000000	-81.13246200000000	615.93927199999996	-28.52419400000000	0.10896600000000	0.00000000000000	-0.07922700000000	0.00000000000000	-3.90614400000000	0.00000000000000	0.00000000000000	-18.55207000000000	0.00000000000000	
5.48164900000000	28.22688600000000	301.33632000000000	2.48241300000000	0.41645900000000	0.00000000000000	0.08893800000000	-81.35295900000000	608.46053400000005	-27.61244100000000	0.10842200000000	0.00000000000000	-0.07902000000000	0.00000000000000	-3.35536400000000	0.00000000000000	0.00000000000000	-18.39194200000000	0.00000000000000	
5.48331400000000	30.22871200000000	310.86171200000001	3.55735800000000	0.41777000000000	0.00000000000000	0.08906500000000	-81.52455399999999	600.83068700000001	-26.68931200000000	0.10791000000000	0.00000000000000	-0.07880700000000	0.00000000000000	-2.77813100000000	0.00000000000000	0.00000000000000	-18.22370500000000	0.00000000000000	
5.48497900000000	32.24025700000000	320.38945400000000	4.66221600000000	0.41901200000000	0.00000000000000	0.08918700000000	-81.64548100000000	593.05156899999997	-25.75600300000000	0.10743000000000	0.00000000000000	-0.07859000000000	0.00000000000000	-2.17637800000000	0.00000000000000	0.00000000000000	-18.04720700000000	0.00000000000000	
